<?xml version="1.0" encoding="UTF-8" standalone="no"?>
<!-- Created with Inkscape (http://www.inkscape.org/) -->

<svg
   width="32"
   height="32"
   viewBox="0 0 32 32"
   version="1.1"
   id="svg1"
   inkscape:export-filename="facebook2.png"
   inkscape:export-xdpi="96"
   inkscape:export-ydpi="96"
   xmlns:inkscape="http://www.inkscape.org/namespaces/inkscape"
   xmlns:sodipodi="http://sodipodi.sourceforge.net/DTD/sodipodi-0.dtd"
   xmlns="http://www.w3.org/2000/svg"
   xmlns:svg="http://www.w3.org/2000/svg">
  <sodipodi:namedview
     id="namedview1"
     pagecolor="#ffffff"
     bordercolor="#ffffff"
     borderopacity="0.25"
     inkscape:showpageshadow="2"
     inkscape:pageopacity="0.0"
     inkscape:pagecheckerboard="0"
     inkscape:deskcolor="#d1d1d1"
     inkscape:document-units="px"
     showgrid="true">
    <inkscape:grid
       id="grid2"
       units="px"
       originx="0"
       originy="0"
       spacingx="1"
       spacingy="1"
       empcolor="#0099e5"
       empopacity="0.30196078"
       color="#0099e5"
       opacity="0.14901961"
       empspacing="5"
       dotted="false"
       gridanglex="30"
       gridanglez="30"
       visible="true" />
  </sodipodi:namedview>
  <defs
     id="defs1" />
  <g
     inkscape:groupmode="layer"
     id="layer1"
     inkscape:label="Layer 1"
     style="fill:#000080;fill-opacity:0.766372">
    <path
       style="fill:none;fill-opacity:0.766372;stroke:#ffffff;stroke-width:1.1;stroke-linejoin:round;stroke-miterlimit:1000;stroke-dasharray:none;stroke-opacity:1;paint-order:markers fill stroke"
       d="m 9.7847114,1.3978158 4.6427456,4.4929798 c 0,0 -3.411149,2.2213806 -3.344774,3.9438374 0.182147,4.726775 5.256638,9.929817 9.9844,10.084244 1.755502,0.05734 3.943838,-3.49454 3.943838,-3.49454 l 4.49298,4.692668 c 0,0 -5.140485,6.170116 -7.188768,6.190327 C 16.820123,27.361552 2.8984577,14.189595 3.6443058,8.2371295 3.993423,5.4508942 9.7847114,1.3978158 9.7847114,1.3978158 Z"
       id="path3"
       sodipodi:nodetypes="ccaaccssc" />
    <path
       style="fill:none;fill-opacity:0.727434;stroke:#ffffff;stroke-width:0.892;stroke-linejoin:round;stroke-miterlimit:1000;stroke-dasharray:none;stroke-opacity:1;paint-order:markers fill stroke"
       d="m 17.946725,4.9462317 c 0,0 1.716035,0.3680024 3.479706,1.8038778 0.270456,0.2201892 0.542033,0.4654903 0.808713,0.738427 1.942113,1.9876776 2.483554,5.2243875 2.483554,5.2243875"
       id="path8"
       sodipodi:nodetypes="cssc" />
    <path
       style="fill:none;fill-opacity:0.727434;stroke:#ffffff;stroke-width:1.1;stroke-linejoin:round;stroke-miterlimit:1000;stroke-dasharray:none;stroke-opacity:1;paint-order:markers fill stroke"
       d="m 18.720749,1.6973479 c 0,0 3.281396,0.6576183 6.164652,3.4153072 2.791811,2.6702251 3.570137,7.0183899 3.570137,7.0183899"
       id="path9"
       sodipodi:nodetypes="csc" />
  </g>
</svg>
