<?xml version="1.0" encoding="UTF-8" standalone="no"?>
<!-- Created with Inkscape (http://www.inkscape.org/) -->

<svg
   width="32"
   height="32"
   viewBox="0 0 32 32"
   version="1.1"
   id="svg1"
   inkscape:export-filename="facebook2.png"
   inkscape:export-xdpi="96"
   inkscape:export-ydpi="96"
   xmlns:inkscape="http://www.inkscape.org/namespaces/inkscape"
   xmlns:sodipodi="http://sodipodi.sourceforge.net/DTD/sodipodi-0.dtd"
   xmlns="http://www.w3.org/2000/svg"
   xmlns:svg="http://www.w3.org/2000/svg">
  <sodipodi:namedview
     id="namedview1"
     pagecolor="#ffffff"
     bordercolor="#ffffff"
     borderopacity="0.25"
     inkscape:showpageshadow="2"
     inkscape:pageopacity="0.0"
     inkscape:pagecheckerboard="0"
     inkscape:deskcolor="#d1d1d1"
     inkscape:document-units="px"
     showgrid="true">
    <inkscape:grid
       id="grid2"
       units="px"
       originx="0"
       originy="0"
       spacingx="1"
       spacingy="1"
       empcolor="#0099e5"
       empopacity="0.30196078"
       color="#0099e5"
       opacity="0.14901961"
       empspacing="5"
       dotted="false"
       gridanglex="30"
       gridanglez="30"
       visible="true" />
  </sodipodi:namedview>
  <defs
     id="defs1" />
  <g
     inkscape:groupmode="layer"
     id="layer1"
     inkscape:label="Layer 1"
     style="fill:#000080;fill-opacity:0.766372">
    <path
       d="M 14.415203,14.184037 H 11.63259 v -2.155846 h 2.782613 v -1.740077 c 0,-1.0984548 0.110841,-1.9145983 0.332515,-2.4484255 0.303345,-0.7186162 0.834199,-1.2986405 1.592565,-1.7400764 0.770031,-0.4517012 1.843409,-0.6775517 3.220134,-0.6775517 0.886702,0 1.866744,0.092394 2.940121,0.2771803 L 22.028017,8.1168691 C 21.374658,8.014199 20.756301,7.9628794 20.172942,7.9628794 c -0.956706,0 -1.6334,0.1796539 -2.030084,0.5389629 -0.396685,0.3593068 -0.595026,1.0317267 -0.595026,2.0172567 v 1.509092 h 3.622652 v 2.155846 h -3.622652 l -0.0386,14.702744 c 5.948496,0.0088 11.024198,-4.672896 11.924142,-11.035401 l 0.008,-0.05801 C 30.455185,10.401398 25.446762,3.5633684 18.250443,2.5142234 14.242824,1.9299561 10.400456,3.2640477 7.6044112,5.8373447 5.3797129,7.8848114 3.8174137,10.716785 3.361318,13.991171 2.3319926,21.380869 7.3259825,28.230026 14.467638,28.8385 Z"
       id="text2"
       style="font-size:24.6232px;font-family:Arial;-inkscape-font-specification:Arial;fill:none;stroke:#ffffff;stroke-width:1.1;stroke-linejoin:round;stroke-miterlimit:1000;stroke-dasharray:none;stroke-opacity:1;paint-order:markers fill stroke"
       aria-label="f"
       sodipodi:nodetypes="ccccsccsccssscccccccssscc" />
  </g>
</svg>
